<svg width="512" height="512" viewBox="0 0 512 512" fill="none" xmlns="http://www.w3.org/2000/svg">
  <rect width="512" height="512" rx="112" fill="#050816"/>
  <rect x="18" y="18" width="476" height="476" rx="94" stroke="url(#rim)" stroke-width="8"/>
  <circle cx="256" cy="256" r="168" fill="url(#halo)" opacity=".72"/>
  <circle cx="256" cy="256" r="108" fill="#070A1D" stroke="#A78BFA" stroke-width="6"/>
  <path d="M155 269c53-105 149-156 220-124 15 7 27 18 36 32-71-24-160 22-211 122-20 39-30 78-31 113-25-36-32-88-14-143Z" fill="url(#accretion)"/>
  <path d="M366 248c-53 105-149 156-220 124-15-7-28-18-37-33 71 25 161-21 212-121 20-39 30-78 31-113 25 36 32 88 14 143Z" fill="url(#accretion2)"/>
  <path d="M185 166h53l31 126 52-126h48l-79 180h-46l-59-180Z" fill="#F8FAFC"/>
  <path d="M244 346h-52l-22-62h51l23 62Z" fill="#C4B5FD"/>
  <circle cx="389" cy="124" r="9" fill="#D8B4FE"/>
  <circle cx="117" cy="371" r="6" fill="#7DD3FC"/>
  <circle cx="151" cy="104" r="4" fill="#EDE9FE"/>
  <path d="M86 255c78-66 265-76 340-19" stroke="#22D3EE" stroke-width="5" stroke-linecap="round" opacity=".64"/>
  <path d="M101 310c89 44 250 27 311-39" stroke="#8B5CF6" stroke-width="5" stroke-linecap="round" opacity=".7"/>
  <defs>
    <linearGradient id="rim" x1="62" y1="42" x2="467" y2="491" gradientUnits="userSpaceOnUse">
      <stop stop-color="#C4B5FD"/>
      <stop offset=".48" stop-color="#8B5CF6"/>
      <stop offset="1" stop-color="#22D3EE"/>
    </linearGradient>
    <radialGradient id="halo" cx="0" cy="0" r="1" gradientUnits="userSpaceOnUse" gradientTransform="translate(256 256) rotate(90) scale(201)">
      <stop stop-color="#8B5CF6"/>
      <stop offset=".42" stop-color="#4C1D95"/>
      <stop offset="1" stop-color="#050816" stop-opacity="0"/>
    </radialGradient>
    <linearGradient id="accretion" x1="141" y1="270" x2="412" y2="270" gradientUnits="userSpaceOnUse">
      <stop stop-color="#22D3EE"/>
      <stop offset=".5" stop-color="#A78BFA"/>
      <stop offset="1" stop-color="#F0ABFC"/>
    </linearGradient>
    <linearGradient id="accretion2" x1="110" y1="242" x2="380" y2="242" gradientUnits="userSpaceOnUse">
      <stop stop-color="#F0ABFC"/>
      <stop offset=".52" stop-color="#8B5CF6"/>
      <stop offset="1" stop-color="#22D3EE"/>
    </linearGradient>
  </defs>
</svg>
